<svg xmlns="http://www.w3.org/2000/svg" viewBox="0 0 64 64" role="img" aria-label="Quiz App Icon">
  <defs>
    <linearGradient id="g" x1="0%" y1="0%" x2="100%" y2="100%">
      <stop offset="0%" stop-color="#2563eb"/>
      <stop offset="100%" stop-color="#7c3aed"/>
    </linearGradient>
  </defs>
  <rect width="64" height="64" rx="14" fill="url(#g)"/>
  <path d="M20 20h24a2 2 0 0 1 2 2v12a2 2 0 0 1-2 2H20a2 2 0 0 1-2-2V22a2 2 0 0 1 2-2z" fill="#fff" opacity="0.16"/>
  <path d="M21 24h22v2H21zm0 6h14v2H21z" fill="#e5e7eb"/>
  <circle cx="43" cy="32" r="6" fill="#fff"/>
  <path d="M42 28a5 5 0 0 1 3.98 7.86l1.02 1.02-1.42 1.42-1-1a5 5 0 1 1-2.58-9.3zm0 2a3 3 0 1 0 0 6 3 3 0 0 0 0-6z" fill="#2563eb"/>
  <rect x="22" y="41" width="20" height="3" rx="1.5" fill="#c7d2fe"/>
  <rect x="27" y="47" width="10" height="3" rx="1.5" fill="#e0e7ff"/>
</svg>
